<svg width="32" height="32" viewBox="0 0 32 32" fill="none" xmlns="http://www.w3.org/2000/svg">
<g clip-path="url(#clip0_1122_1365)">
<path d="M31.8862 23.052C31.6642 22.446 31.2402 22.122 30.7582 21.854C30.6784 21.8073 30.5963 21.7646 30.5122 21.726L30.0742 21.504C28.5702 20.706 27.3962 19.7 26.5822 18.508C26.3507 18.1728 26.1499 17.8173 25.9822 17.446C25.9142 17.246 25.9182 17.134 25.9662 17.032C26.0163 16.9526 26.0824 16.8845 26.1602 16.832C26.4182 16.66 26.6842 16.486 26.8642 16.37C27.1882 16.162 27.4422 15.996 27.6062 15.88C28.2242 15.448 28.6562 14.988 28.9262 14.476C29.1144 14.1219 29.2241 13.7313 29.2479 13.331C29.2717 12.9307 29.2091 12.53 29.0642 12.156C28.6542 11.08 27.6382 10.412 26.4062 10.412C26.0772 10.4113 25.7496 10.4551 25.4322 10.542C25.4442 9.806 25.4282 9.028 25.3622 8.264C25.1302 5.576 24.1882 4.168 23.2082 3.044C22.5799 2.34038 21.84 1.74507 21.0182 1.282C19.5282 0.432 17.8402 0 15.9982 0C14.1582 0 12.4782 0.432 10.9882 1.282C10.1642 1.746 9.42421 2.342 8.79421 3.048C7.81421 4.172 6.87421 5.582 6.64021 8.268C6.57421 9.032 6.56021 9.812 6.56821 10.544C6.25087 10.4571 5.92325 10.4134 5.59421 10.414C4.36421 10.414 3.34621 11.084 2.93821 12.16C2.79259 12.534 2.72919 12.9349 2.75231 13.3356C2.77543 13.7363 2.88454 14.1273 3.07221 14.482C3.34421 14.994 3.77621 15.454 4.39221 15.884C4.55621 16 4.81221 16.164 5.13421 16.376L5.81221 16.818C5.89921 16.8756 5.97342 16.9505 6.03021 17.038C6.08221 17.144 6.08421 17.258 6.00621 17.472C5.84081 17.8355 5.64337 18.1835 5.41621 18.512C4.62021 19.678 3.48021 20.666 2.02421 21.456C1.25421 21.864 0.452215 22.136 0.114215 23.056C-0.141785 23.752 0.0262145 24.542 0.674215 25.206C0.912215 25.456 1.18821 25.666 1.49221 25.826C2.12386 26.173 2.79549 26.4417 3.49221 26.626C3.63605 26.6629 3.77263 26.7237 3.89621 26.806C4.13221 27.014 4.10021 27.326 4.41421 27.782C4.57221 28.018 4.77421 28.222 5.00621 28.382C5.66621 28.84 6.40821 28.868 7.19621 28.898C7.90621 28.926 8.71221 28.958 9.63021 29.258C10.0102 29.386 10.4082 29.63 10.8662 29.914C11.9662 30.59 13.4762 31.518 15.9982 31.518C18.5222 31.518 20.0382 30.586 21.1502 29.906C21.6042 29.626 21.9982 29.386 22.3682 29.264C23.2882 28.96 24.0942 28.928 24.8042 28.902C25.5902 28.872 26.3322 28.842 26.9942 28.386C27.2697 28.1932 27.4992 27.9419 27.6662 27.65C27.8942 27.266 27.8862 26.996 28.1002 26.81C28.2162 26.7311 28.3447 26.6723 28.4802 26.636C29.1868 26.451 29.868 26.1796 30.5082 25.828C30.8282 25.654 31.1202 25.428 31.3662 25.156L31.3742 25.146C31.9822 24.496 32.1342 23.728 31.8862 23.052V23.052ZM29.6442 24.256C28.2762 25.012 27.3662 24.93 26.6582 25.386C26.0582 25.772 26.4142 26.606 25.9782 26.906C25.4402 27.278 23.8562 26.882 21.8082 27.558C20.1182 28.116 19.0402 29.722 16.0022 29.722C12.9642 29.722 11.9122 28.12 10.1942 27.554C8.15021 26.878 6.56221 27.274 6.02621 26.904C5.59021 26.604 5.94421 25.768 5.34421 25.382C4.63621 24.926 3.72621 25.008 2.36021 24.256C1.48821 23.776 1.98221 23.476 2.27221 23.336C7.22821 20.938 8.01821 17.236 8.05221 16.96C8.09621 16.628 8.14221 16.366 7.77621 16.028C7.42221 15.7 5.85221 14.728 5.41621 14.424C4.69621 13.92 4.37621 13.418 4.61221 12.8C4.77621 12.372 5.17421 12.21 5.59221 12.21C5.72474 12.2106 5.85682 12.2253 5.98621 12.254C6.77821 12.426 7.54621 12.824 7.99021 12.93C8.04421 12.944 8.09821 12.95 8.15421 12.952C8.39021 12.952 8.47421 12.832 8.45821 12.562C8.40621 11.696 8.28421 10.008 8.42021 8.43C8.60821 6.262 9.30821 5.186 10.1382 4.236C10.5382 3.778 12.4122 1.796 15.9982 1.796C19.5822 1.796 21.4622 3.77 21.8602 4.226C22.6922 5.176 23.3922 6.252 23.5782 8.422C23.7142 9.998 23.5962 11.686 23.5402 12.552C23.5202 12.836 23.6082 12.942 23.8442 12.942C23.8995 12.9418 23.9545 12.9351 24.0082 12.922C24.4522 12.814 25.2222 12.416 26.0122 12.246C26.1415 12.2164 26.2736 12.201 26.4062 12.2C26.8262 12.2 27.2242 12.364 27.3862 12.79C27.6202 13.408 27.3062 13.91 26.5842 14.414C26.1482 14.718 24.5782 15.69 24.2242 16.018C23.8562 16.356 23.9042 16.618 23.9462 16.95C23.9822 17.23 24.7722 20.932 29.7262 23.328C30.0202 23.474 30.5142 23.772 29.6442 24.256V24.256Z" fill="#2D1105"/>
</g>
<defs>
<clipPath id="clip0_1122_1365">
<rect width="32" height="32" fill="white"/>
</clipPath>
</defs>
</svg>
