<svg width="106" height="21" viewBox="0 0 106 21" fill="none" xmlns="http://www.w3.org/2000/svg">
<path d="M15.1289 17.2227C15.0768 17.3268 14.9987 17.4049 14.8945 17.457C14.7904 17.5091 14.6927 17.5612 14.6016 17.6133C14.5365 17.6523 14.4323 17.6784 14.2891 17.6914C14.1589 17.6914 14.0482 17.7044 13.957 17.7305C13.8529 17.7695 13.7617 17.8346 13.6836 17.9258C13.6055 18.0039 13.5143 18.069 13.4102 18.1211C13.293 18.1862 13.1693 18.2513 13.0391 18.3164C12.9219 18.3685 12.8307 18.4531 12.7656 18.5703C12.7656 18.6354 12.7786 18.681 12.8047 18.707C12.8307 18.7331 12.8633 18.7591 12.9023 18.7852L12.9219 18.8242C12.8177 18.8112 12.7005 18.7917 12.5703 18.7656C12.4401 18.7266 12.3294 18.7201 12.2383 18.7461C12.1341 18.7721 12.0365 18.8047 11.9453 18.8438C11.8672 18.8828 11.776 18.9219 11.6719 18.9609C11.5807 18.987 11.4896 19.013 11.3984 19.0391C11.3073 19.0651 11.2161 19.0911 11.125 19.1172C11.0208 19.1432 10.9297 19.1888 10.8516 19.2539C10.7734 19.332 10.6823 19.3906 10.5781 19.4297C10.526 19.4557 10.474 19.4622 10.4219 19.4492C10.3828 19.4492 10.3372 19.4557 10.2852 19.4688C10.1419 19.4688 9.99219 19.4883 9.83594 19.5273C9.67969 19.5664 9.53646 19.612 9.40625 19.6641C9.28906 19.7031 9.1849 19.7812 9.09375 19.8984C9.0026 20.0286 8.92448 20.0938 8.85938 20.0938C8.75521 20.1198 8.65104 20.1133 8.54688 20.0742C8.44271 20.0482 8.33854 20.0417 8.23438 20.0547C8.13021 20.0677 8.03255 20.0352 7.94141 19.957C7.85026 19.8919 7.74609 19.8659 7.62891 19.8789C7.4987 19.8919 7.38802 19.931 7.29688 19.9961C7.20573 20.0742 7.11458 20.1133 7.02344 20.1133C6.93229 20.1133 6.83464 20.0938 6.73047 20.0547C6.6263 20.0286 6.52214 20.0026 6.41797 19.9766C6.3138 19.9505 6.20964 19.9505 6.10547 19.9766C6.0013 20.0156 5.89062 20.0221 5.77344 19.9961C5.68229 19.9701 5.60417 19.8919 5.53906 19.7617C5.48698 19.6445 5.40885 19.5729 5.30469 19.5469C5.1224 19.4818 4.9401 19.4102 4.75781 19.332C4.57552 19.2669 4.40625 19.1953 4.25 19.1172L4.26953 19.0586C4.24349 18.9935 4.21094 18.974 4.17188 19C4.13281 19.026 4.10026 19.0521 4.07422 19.0781H4.05469C3.88542 18.9089 3.77474 18.7852 3.72266 18.707C3.68359 18.6289 3.67057 18.5638 3.68359 18.5117C3.69661 18.4596 3.72266 18.401 3.76172 18.3359C3.80078 18.2578 3.8138 18.1341 3.80078 17.9648C3.80078 17.8997 3.74219 17.8151 3.625 17.7109C3.52083 17.6068 3.44922 17.5221 3.41016 17.457C3.34505 17.3529 3.29297 17.2812 3.25391 17.2422C3.21484 17.1901 3.14974 17.1185 3.05859 17.0273L3.01953 16.9883L2.74609 15.9336C2.72005 15.9596 2.69401 16.0117 2.66797 16.0898C2.62891 16.168 2.59635 16.2591 2.57031 16.3633C2.54427 16.4544 2.51823 16.5391 2.49219 16.6172C2.45312 16.6953 2.42708 16.7409 2.41406 16.7539C2.34896 16.819 2.34245 16.9362 2.39453 17.1055C2.44661 17.2617 2.44661 17.3789 2.39453 17.457C2.2513 17.6784 2.14714 17.8346 2.08203 17.9258C2.01693 18.0039 1.97786 18.0755 1.96484 18.1406C1.95182 18.1927 1.95182 18.2708 1.96484 18.375C1.97786 18.4792 1.98438 18.6615 1.98438 18.9219C1.95833 18.9219 1.9388 18.9284 1.92578 18.9414C1.84766 19.0065 1.76953 19.0326 1.69141 19.0195C1.61328 19.0195 1.52865 19.013 1.4375 19C1.34635 18.987 1.2487 18.9805 1.14453 18.9805C1.02734 18.9805 0.890625 19.0195 0.734375 19.0977C0.682292 19.0977 0.643229 19.1367 0.617188 19.2148C0.617188 19.1367 0.552083 19.0456 0.421875 18.9414C0.291667 18.8242 0.220052 18.7135 0.207031 18.6094C0.19401 18.5052 0.252604 18.401 0.382812 18.2969C0.5 18.1797 0.578125 18.069 0.617188 17.9648C0.65625 17.8477 0.669271 17.7174 0.65625 17.5742C0.630208 17.418 0.64974 17.2943 0.714844 17.2031C0.740885 17.1641 0.773438 17.138 0.8125 17.125C0.838542 17.112 0.871094 17.0924 0.910156 17.0664C1.06641 16.9622 1.15104 16.8646 1.16406 16.7734C1.17708 16.6823 1.19661 16.5586 1.22266 16.4023C1.23568 16.3372 1.24219 16.2982 1.24219 16.2852C1.24219 16.2591 1.20964 16.2331 1.14453 16.207C1.20964 16.1159 1.28776 16.0508 1.37891 16.0117C1.45703 15.9596 1.51562 15.8815 1.55469 15.7773C1.59375 15.6732 1.60677 15.5755 1.59375 15.4844C1.58073 15.3802 1.58724 15.276 1.61328 15.1719C1.63932 15.0807 1.69792 15.0026 1.78906 14.9375C1.86719 14.8594 1.92578 14.7682 1.96484 14.6641C1.97786 14.625 1.9974 14.5729 2.02344 14.5078C2.03646 14.4297 2.05599 14.3451 2.08203 14.2539C2.09505 14.1628 2.10807 14.0846 2.12109 14.0195C2.13411 13.9414 2.14062 13.8828 2.14062 13.8438C2.14062 13.7786 2.14062 13.7005 2.14062 13.6094C2.1276 13.5182 2.13411 13.4466 2.16016 13.3945C2.19922 13.2904 2.24479 13.1927 2.29688 13.1016C2.34896 13.0104 2.39453 12.9128 2.43359 12.8086C2.47266 12.7044 2.4987 12.6003 2.51172 12.4961C2.51172 12.3789 2.53125 12.2682 2.57031 12.1641C2.59635 12.0729 2.68099 11.9948 2.82422 11.9297C2.95443 11.8646 3.04557 11.7734 3.09766 11.6562C3.1237 11.6042 3.13672 11.5521 3.13672 11.5C3.14974 11.4479 3.16276 11.3958 3.17578 11.3438C3.20182 11.2396 3.24089 11.0833 3.29297 10.875C3.34505 10.6536 3.40365 10.4909 3.46875 10.3867C3.50781 10.2956 3.57943 10.2109 3.68359 10.1328C3.80078 10.0547 3.89193 9.96354 3.95703 9.85938C3.95703 9.74219 3.9375 9.63802 3.89844 9.54688C3.85938 9.45573 3.83984 9.35156 3.83984 9.23438C3.86589 9.15625 3.90495 9.07812 3.95703 9C4.00911 8.92188 4.05469 8.84375 4.09375 8.76562C4.13281 8.6875 4.16536 8.60286 4.19141 8.51172C4.23047 8.42057 4.26953 8.33594 4.30859 8.25781C4.38672 8.1276 4.49089 8.02344 4.62109 7.94531C4.7513 7.86719 4.84896 7.75651 4.91406 7.61328C4.91406 7.54818 4.90104 7.51562 4.875 7.51562C4.86198 7.51562 4.84245 7.5026 4.81641 7.47656C4.7513 7.47656 4.70573 7.45052 4.67969 7.39844C4.74479 7.30729 4.82943 7.24219 4.93359 7.20312C5.03776 7.16406 5.11589 7.09245 5.16797 6.98828C5.23307 6.85807 5.2526 6.73438 5.22656 6.61719C5.21354 6.5 5.23958 6.38932 5.30469 6.28516C5.36979 6.18099 5.4349 6.08333 5.5 5.99219C5.5651 5.90104 5.63021 5.80339 5.69531 5.69922C5.7474 5.62109 5.81901 5.5625 5.91016 5.52344C6.01432 5.48438 6.09896 5.40625 6.16406 5.28906C6.21615 5.17188 6.22917 5.0612 6.20312 4.95703C6.1901 4.83984 6.20964 4.74219 6.26172 4.66406C6.32682 4.5599 6.40495 4.48828 6.49609 4.44922C6.60026 4.41016 6.6849 4.33854 6.75 4.23438C6.80208 4.14323 6.82161 4.03906 6.80859 3.92188C6.79557 3.79167 6.80859 3.69401 6.84766 3.62891C6.89974 3.52474 6.9388 3.42708 6.96484 3.33594C7.00391 3.23177 7.05599 3.14062 7.12109 3.0625C7.14714 3.02344 7.17969 2.98438 7.21875 2.94531C7.25781 2.90625 7.29688 2.86719 7.33594 2.82812C7.54427 2.59375 7.73958 2.35938 7.92188 2.125C7.98698 2.04688 8.04557 1.96224 8.09766 1.87109C8.16276 1.76693 8.22786 1.68229 8.29297 1.61719C8.37109 1.55208 8.44922 1.48698 8.52734 1.42188C8.60547 1.35677 8.68359 1.29167 8.76172 1.22656C8.83984 1.16146 8.93099 1.10938 9.03516 1.07031C9.15234 1.03125 9.25 0.979167 9.32812 0.914062C9.36719 0.875 9.38021 0.842448 9.36719 0.816406C9.36719 0.777344 9.38021 0.744792 9.40625 0.71875C9.43229 0.770833 9.45182 0.822917 9.46484 0.875C9.49089 0.914062 9.51693 0.959635 9.54297 1.01172L9.62109 0.933594C9.6862 0.86849 9.73828 0.829427 9.77734 0.816406C9.81641 0.803385 9.875 0.777344 9.95312 0.738281C9.99219 0.72526 10.0443 0.699219 10.1094 0.660156C10.1745 0.621094 10.2396 0.582031 10.3047 0.542969C10.3828 0.503906 10.4479 0.471354 10.5 0.445312C10.5651 0.40625 10.6107 0.386719 10.6367 0.386719C10.7279 0.386719 10.819 0.425781 10.9102 0.503906C11.0143 0.56901 11.112 0.614583 11.2031 0.640625C11.3464 0.692708 11.4701 0.705729 11.5742 0.679688C11.6914 0.640625 11.8216 0.666667 11.9648 0.757812C12.043 0.809896 12.1276 0.86849 12.2188 0.933594C12.3099 0.985677 12.388 1.05078 12.4531 1.12891C12.5312 1.19401 12.6094 1.30469 12.6875 1.46094C12.7786 1.61719 12.8503 1.70833 12.9023 1.73438C12.9284 1.94271 12.9544 2.15104 12.9805 2.35938C13.0195 2.55469 13.0586 2.75651 13.0977 2.96484C13.1237 3.06901 13.1302 3.17318 13.1172 3.27734C13.1172 3.36849 13.1237 3.46615 13.1367 3.57031C13.1497 3.67448 13.1367 3.77865 13.0977 3.88281C13.0586 3.98698 13.0456 4.09115 13.0586 4.19531C13.0716 4.3125 13.1237 4.42318 13.2148 4.52734C13.306 4.61849 13.3516 4.71615 13.3516 4.82031C13.3516 4.92448 13.3255 5.02865 13.2734 5.13281C13.2344 5.22396 13.2148 5.32812 13.2148 5.44531C13.2148 5.54948 13.2083 5.65365 13.1953 5.75781C13.1953 5.86198 13.1888 5.96615 13.1758 6.07031C13.1628 6.17448 13.1628 6.27865 13.1758 6.38281C13.1888 6.48698 13.1953 6.59115 13.1953 6.69531C13.1953 6.94271 13.1497 7.15755 13.0586 7.33984C12.9805 7.52214 12.9154 7.71745 12.8633 7.92578C12.8372 8.02995 12.8307 8.13411 12.8438 8.23828C12.8568 8.34245 12.8633 8.44661 12.8633 8.55078C12.8633 8.58984 12.8307 8.69401 12.7656 8.86328C12.7005 9.01953 12.6615 9.11719 12.6484 9.15625C12.5964 9.26042 12.5312 9.35156 12.4531 9.42969C12.388 9.50781 12.3359 9.59896 12.2969 9.70312C12.2708 9.78125 12.2643 9.8724 12.2773 9.97656C12.3034 10.0807 12.3164 10.1784 12.3164 10.2695C12.3164 10.2956 12.3099 10.3216 12.2969 10.3477C12.2969 10.3607 12.2969 10.3802 12.2969 10.4062C12.2318 10.4974 12.1536 10.5755 12.0625 10.6406C11.9714 10.7057 11.8997 10.7839 11.8477 10.875C11.7956 10.9661 11.7174 11.0443 11.6133 11.1094C11.5091 11.1615 11.4245 11.2266 11.3594 11.3047C11.2943 11.3828 11.2422 11.474 11.2031 11.5781C11.1641 11.6693 11.112 11.7539 11.0469 11.832C10.9688 11.9362 10.9167 12.0534 10.8906 12.1836C10.8776 12.3138 10.8385 12.4115 10.7734 12.4766C10.6953 12.5547 10.5911 12.5938 10.4609 12.5938C10.3307 12.5807 10.207 12.6393 10.0898 12.7695C10.0898 12.7956 10.0964 12.8151 10.1094 12.8281C10.1224 12.8281 10.1354 12.8411 10.1484 12.8672C10.0573 12.9062 9.95964 12.9258 9.85547 12.9258C9.76432 12.9128 9.67969 12.9193 9.60156 12.9453C9.4974 12.9714 9.39323 13.0365 9.28906 13.1406C9.19792 13.2318 9.10677 13.2773 9.01562 13.2773C8.97656 13.2773 8.90495 13.2643 8.80078 13.2383C8.70964 13.2122 8.60547 13.1862 8.48828 13.1602C8.38411 13.1341 8.27995 13.1081 8.17578 13.082C8.07161 13.043 8 13.0169 7.96094 13.0039L7.76562 12.9258C7.60938 12.8607 7.49219 12.7956 7.41406 12.7305C7.33594 12.6523 7.19922 12.5742 7.00391 12.4961C6.95182 12.4701 6.89323 12.4505 6.82812 12.4375C6.77604 12.4115 6.73047 12.431 6.69141 12.4961C6.61328 12.431 6.52865 12.3659 6.4375 12.3008C6.34635 12.2227 6.25521 12.151 6.16406 12.0859C6.0599 12.0208 5.96224 11.9492 5.87109 11.8711C5.79297 11.793 5.70182 11.7214 5.59766 11.6562C5.53255 11.6172 5.46745 11.5911 5.40234 11.5781C5.35026 11.5521 5.29818 11.5326 5.24609 11.5195C5.20703 11.5065 5.16146 11.487 5.10938 11.4609C5.05729 11.4349 4.9987 11.3828 4.93359 11.3047L4.89453 11.4219C4.86849 11.4479 4.82292 11.4674 4.75781 11.4805C4.69271 11.4935 4.64714 11.5326 4.62109 11.5977C4.59505 11.6758 4.61458 11.7865 4.67969 11.9297C4.74479 12.0599 4.76432 12.1706 4.73828 12.2617C4.71224 12.3529 4.71224 12.4701 4.73828 12.6133C4.76432 12.7435 4.74479 12.8411 4.67969 12.9062V12.9453C4.64062 13.0104 4.59505 13.0755 4.54297 13.1406C4.49089 13.1927 4.45833 13.2643 4.44531 13.3555C4.43229 13.4466 4.44531 13.5378 4.48438 13.6289C4.53646 13.7201 4.55599 13.8177 4.54297 13.9219C4.54297 14.013 4.53646 14.1042 4.52344 14.1953C4.52344 14.2734 4.52344 14.3646 4.52344 14.4688C4.52344 14.599 4.47786 14.7357 4.38672 14.8789C4.30859 15.0221 4.28255 15.1393 4.30859 15.2305C4.36068 15.3477 4.43229 15.4518 4.52344 15.543C4.61458 15.6341 4.66016 15.7448 4.66016 15.875C4.66016 16.0312 4.66016 16.1549 4.66016 16.2461C4.66016 16.3242 4.66667 16.3958 4.67969 16.4609C4.69271 16.526 4.71224 16.6042 4.73828 16.6953C4.76432 16.7734 4.8099 16.8776 4.875 17.0078C4.92708 17.112 4.9987 17.1836 5.08984 17.2227C5.19401 17.2487 5.27865 17.3073 5.34375 17.3984C5.36979 17.4245 5.38281 17.4701 5.38281 17.5352C5.39583 17.5872 5.40234 17.6263 5.40234 17.6523C5.42839 17.8867 5.49349 18.043 5.59766 18.1211C5.70182 18.1992 5.84505 18.2969 6.02734 18.4141H6.04688C6.16406 18.4141 6.27474 18.3945 6.37891 18.3555C6.48307 18.3164 6.58724 18.3034 6.69141 18.3164C6.80859 18.3294 6.89974 18.3815 6.96484 18.4727C7.02995 18.5638 7.13411 18.6224 7.27734 18.6484C7.4987 18.6745 7.70703 18.681 7.90234 18.668C8.09766 18.6549 8.30599 18.6354 8.52734 18.6094C8.63151 18.5833 8.73568 18.5768 8.83984 18.5898C8.94401 18.6029 9.04818 18.5964 9.15234 18.5703C9.26953 18.5573 9.3737 18.5443 9.46484 18.5312C9.56901 18.5182 9.67318 18.4987 9.77734 18.4727C9.9987 18.4336 10.207 18.401 10.4023 18.375C10.6107 18.3359 10.8255 18.2839 11.0469 18.2188C11.151 18.1927 11.2357 18.1211 11.3008 18.0039C11.3789 17.8867 11.457 17.8151 11.5352 17.7891C11.6263 17.75 11.7305 17.75 11.8477 17.7891C11.9779 17.8151 12.0951 17.8086 12.1992 17.7695C12.3034 17.7174 12.401 17.6719 12.4922 17.6328C12.5833 17.5938 12.681 17.5417 12.7852 17.4766C12.8633 17.4245 12.9609 17.3919 13.0781 17.3789C13.1953 17.3659 13.306 17.3333 13.4102 17.2812C13.5143 17.2161 13.5859 17.1315 13.625 17.0273C13.6771 16.9102 13.7422 16.819 13.8203 16.7539C13.8854 16.7148 13.9701 16.6562 14.0742 16.5781C14.1914 16.5 14.3086 16.4349 14.4258 16.3828C14.543 16.3307 14.6536 16.3047 14.7578 16.3047C14.875 16.2917 14.9661 16.3307 15.0312 16.4219C14.9922 16.487 14.9792 16.5586 14.9922 16.6367C15.0182 16.7148 15.0443 16.793 15.0703 16.8711C15.0964 16.9492 15.1159 17.0208 15.1289 17.0859C15.1549 17.138 15.1549 17.1836 15.1289 17.2227ZM11.7891 4.76172C11.7891 4.73568 11.75 4.70964 11.6719 4.68359C11.6068 4.64453 11.5612 4.625 11.5352 4.625C11.5612 4.58594 11.6068 4.52083 11.6719 4.42969C11.75 4.33854 11.7565 4.26693 11.6914 4.21484C11.6784 4.07161 11.6328 3.9349 11.5547 3.80469C11.4896 3.67448 11.418 3.55078 11.3398 3.43359C11.2617 3.31641 11.1901 3.21224 11.125 3.12109C11.0599 3.01693 11.0208 2.91927 11.0078 2.82812C11.0339 2.80208 11.0599 2.76953 11.0859 2.73047C11.125 2.69141 11.1445 2.64583 11.1445 2.59375C11.1445 2.51562 11.1055 2.38542 11.0273 2.20312C10.9492 2.02083 10.8581 1.91667 10.7539 1.89062C10.6758 1.86458 10.5651 1.8776 10.4219 1.92969C10.2786 1.98177 10.1289 2.04688 9.97266 2.125C9.82943 2.20312 9.6862 2.28776 9.54297 2.37891C9.41276 2.47005 9.3151 2.54167 9.25 2.59375C9.17188 2.65885 9.08073 2.70443 8.97656 2.73047C8.88542 2.74349 8.80729 2.78906 8.74219 2.86719C8.6901 3.04948 8.64453 3.21224 8.60547 3.35547C8.57943 3.4987 8.51432 3.66146 8.41016 3.84375C8.37109 3.90885 8.33854 3.96745 8.3125 4.01953C8.29948 4.07161 8.26693 4.13021 8.21484 4.19531C8.14974 4.29948 8.07812 4.38411 8 4.44922C7.92188 4.51432 7.85026 4.59896 7.78516 4.70312C7.72005 4.80729 7.67448 4.91146 7.64844 5.01562C7.6224 5.11979 7.57682 5.23047 7.51172 5.34766C7.4987 5.3737 7.47266 5.42578 7.43359 5.50391C7.40755 5.58203 7.38151 5.66667 7.35547 5.75781C7.32943 5.83594 7.31641 5.91406 7.31641 5.99219C7.31641 6.05729 7.34245 6.10286 7.39453 6.12891L7.45312 6.1875C7.38802 6.2526 7.31641 6.3112 7.23828 6.36328C7.17318 6.40234 7.10807 6.46094 7.04297 6.53906C6.97786 6.61719 6.90625 6.69531 6.82812 6.77344C6.76302 6.85156 6.71094 6.94271 6.67188 7.04688C6.63281 7.15104 6.58724 7.24219 6.53516 7.32031C6.49609 7.39844 6.45703 7.48958 6.41797 7.59375C6.37891 7.69792 6.36589 7.8151 6.37891 7.94531C6.39193 8.0625 6.38542 8.15365 6.35938 8.21875C6.32031 8.3099 6.28125 8.40104 6.24219 8.49219C6.21615 8.57031 6.18359 8.66146 6.14453 8.76562C6.10547 8.85677 6.06641 8.94792 6.02734 9.03906C5.98828 9.11719 5.9362 9.20182 5.87109 9.29297C5.83203 9.39714 5.75391 9.51432 5.63672 9.64453C5.53255 9.76172 5.46745 9.85286 5.44141 9.91797C5.48047 9.97005 5.53255 10.0026 5.59766 10.0156C5.66276 10.0286 5.72786 10.0417 5.79297 10.0547C5.87109 10.0547 5.94271 10.0612 6.00781 10.0742C6.07292 10.0742 6.125 10.0938 6.16406 10.1328C6.22917 10.1979 6.28776 10.2695 6.33984 10.3477C6.39193 10.4258 6.45052 10.4974 6.51562 10.5625C6.59375 10.6276 6.65234 10.7188 6.69141 10.8359C6.73047 10.9401 6.83464 11.0638 7.00391 11.207C7.06901 11.2591 7.12109 11.3112 7.16016 11.3633C7.19922 11.4154 7.2513 11.4609 7.31641 11.5C7.40755 11.5651 7.50521 11.6042 7.60938 11.6172C7.72656 11.6172 7.83724 11.6367 7.94141 11.6758C8.04557 11.7148 8.14323 11.7734 8.23438 11.8516C8.33854 11.9297 8.44922 11.9622 8.56641 11.9492C8.67057 11.9362 8.75521 11.8841 8.82031 11.793C8.88542 11.7018 8.96354 11.6367 9.05469 11.5977C9.08073 11.5716 9.11328 11.5586 9.15234 11.5586C9.20443 11.5586 9.25 11.5521 9.28906 11.5391C9.36719 11.526 9.41927 11.513 9.44531 11.5C9.48438 11.487 9.51693 11.474 9.54297 11.4609C9.58203 11.4349 9.61458 11.4089 9.64062 11.3828C9.67969 11.3568 9.73177 11.3177 9.79688 11.2656C9.86198 11.2135 9.91406 11.168 9.95312 11.1289C10.0052 11.0898 10.0573 11.0378 10.1094 10.9727C10.1745 10.8945 10.2201 10.8099 10.2461 10.7188C10.2852 10.6276 10.3307 10.543 10.3828 10.4648C10.4479 10.3737 10.4805 10.276 10.4805 10.1719C10.4935 10.0547 10.5326 9.95052 10.5977 9.85938C10.6628 9.76823 10.7474 9.6901 10.8516 9.625C10.9688 9.5599 11.0664 9.48177 11.1445 9.39062C11.0404 9.18229 11.0013 9.03255 11.0273 8.94141C11.0534 8.83724 11.1185 8.6875 11.2227 8.49219C11.2747 8.38802 11.3008 8.28385 11.3008 8.17969C11.3008 8.07552 11.3333 7.97135 11.3984 7.86719C11.4766 7.72396 11.5286 7.59375 11.5547 7.47656C11.5807 7.35938 11.5938 7.22266 11.5938 7.06641C11.6719 7.06641 11.7435 7.05339 11.8086 7.02734C11.8737 6.98828 11.8346 6.94271 11.6914 6.89062C11.7956 6.68229 11.8477 6.53255 11.8477 6.44141C11.8477 6.33724 11.8216 6.17448 11.7695 5.95312C11.7435 5.875 11.7174 5.79688 11.6914 5.71875C11.6654 5.64062 11.6393 5.5625 11.6133 5.48438C11.6133 5.43229 11.6263 5.38672 11.6523 5.34766C11.6914 5.29557 11.724 5.25 11.75 5.21094C11.776 5.15885 11.7826 5.10677 11.7695 5.05469C11.7695 4.98958 11.724 4.91797 11.6328 4.83984C11.6589 4.83984 11.6849 4.83984 11.7109 4.83984C11.75 4.82682 11.7695 4.80729 11.7695 4.78125L11.7891 4.76172ZM29.0156 13.0234C28.8984 13.1406 28.8073 13.2318 28.7422 13.2969C28.6901 13.362 28.638 13.4271 28.5859 13.4922C28.5469 13.5443 28.4948 13.6029 28.4297 13.668C28.3776 13.7331 28.293 13.8307 28.1758 13.9609C28.0716 14.0651 27.974 14.1758 27.8828 14.293C27.7917 14.4102 27.6875 14.5143 27.5703 14.6055C27.4141 14.5664 27.2904 14.5859 27.1992 14.6641C27.1211 14.7422 27.043 14.8333 26.9648 14.9375C26.8997 15.0286 26.8346 15.1198 26.7695 15.2109C26.7174 15.2891 26.6458 15.3216 26.5547 15.3086C26.2422 15.4779 25.9297 15.6276 25.6172 15.7578C25.3047 15.875 25.0052 16.0508 24.7188 16.2852L24.5625 16.1289L22.5312 17.1055C22.4661 17.1315 22.401 17.1706 22.3359 17.2227C22.2708 17.2747 22.2057 17.3203 22.1406 17.3594C21.8542 17.5156 21.5547 17.6589 21.2422 17.7891C20.9427 17.9062 20.6432 18.0169 20.3438 18.1211L20.0898 18.1992C20.194 18.4596 20.194 18.6419 20.0898 18.7461C19.9857 18.8503 19.8359 18.9284 19.6406 18.9805C19.4453 19.0195 19.2305 19.0456 18.9961 19.0586C18.7617 19.0716 18.5794 19.1172 18.4492 19.1953C18.293 19.1693 18.1302 19.1562 17.9609 19.1562C17.8047 19.1693 17.6419 19.1888 17.4727 19.2148C17.2904 19.2409 17.1211 19.2539 16.9648 19.2539C16.8086 19.2539 16.6393 19.2344 16.457 19.1953H16.418C16.1966 19.2995 16.0013 19.319 15.832 19.2539C15.6758 19.2018 15.5326 19.1107 15.4023 18.9805C15.2721 18.8372 15.1484 18.6745 15.0312 18.4922C14.9271 18.2969 14.8164 18.1211 14.6992 17.9648C14.6211 17.8607 14.5234 17.7109 14.4062 17.5156C14.2891 17.3203 14.1914 17.112 14.1133 16.8906C14.0221 16.6693 13.9701 16.4479 13.957 16.2266C13.931 15.9922 13.9766 15.7904 14.0938 15.6211C14.2109 15.4518 14.3086 15.2695 14.3867 15.0742C14.4518 14.8789 14.4844 14.651 14.4844 14.3906C14.4844 14.2995 14.4844 14.2148 14.4844 14.1367C14.4714 14.0586 14.4648 13.974 14.4648 13.8828C14.5299 13.8828 14.6016 13.8893 14.6797 13.9023C14.7578 13.9023 14.8294 13.9023 14.8945 13.9023C14.9727 13.8893 15.0312 13.8633 15.0703 13.8242C15.1224 13.7721 15.1484 13.6875 15.1484 13.5703C15.1484 13.5052 15.1224 13.4531 15.0703 13.4141C15.0312 13.375 15.0052 13.3359 14.9922 13.2969C15.0703 13.1797 15.1419 13.0885 15.207 13.0234C15.2852 12.9453 15.3503 12.8737 15.4023 12.8086C15.4544 12.7305 15.4935 12.6458 15.5195 12.5547C15.5456 12.4505 15.5391 12.3138 15.5 12.1445C15.6562 11.8711 15.8385 11.6302 16.0469 11.4219C16.2682 11.2005 16.4961 10.9987 16.7305 10.8164C16.9648 10.6211 17.2057 10.4323 17.4531 10.25C17.7005 10.0677 17.9349 9.8724 18.1562 9.66406C18.4036 9.76823 18.599 9.76823 18.7422 9.66406C18.8984 9.5599 19.0352 9.44922 19.1523 9.33203C19.2695 9.20182 19.3867 9.09766 19.5039 9.01953C19.6211 8.94141 19.7773 8.97396 19.9727 9.11719L20.0117 9.15625C20.3633 8.80469 20.7148 8.64844 21.0664 8.6875C21.431 8.72656 21.737 8.84375 21.9844 9.03906C22.2448 9.23438 22.4141 9.46224 22.4922 9.72266C22.5703 9.97005 22.4987 10.1393 22.2773 10.2305C22.4206 10.3737 22.4922 10.543 22.4922 10.7383C22.4922 10.9336 22.4401 11.1029 22.3359 11.2461C22.2188 11.4023 22.1146 11.5651 22.0234 11.7344C21.9453 11.8906 21.8607 12.0599 21.7695 12.2422C21.6393 12.5417 21.4961 12.8281 21.3398 13.1016C21.1836 13.362 20.9622 13.5833 20.6758 13.7656C20.4414 13.7005 20.2786 13.7266 20.1875 13.8438C20.1094 13.9609 20.0508 14.0911 20.0117 14.2344C19.9727 14.3646 19.9271 14.4688 19.875 14.5469C19.8229 14.625 19.7122 14.599 19.543 14.4688L19.5039 14.4297L19.4648 14.4688C19.3607 14.5729 19.276 14.6901 19.2109 14.8203C19.1589 14.9505 19.0807 15.0482 18.9766 15.1133C18.8594 15.0742 18.7357 15.0417 18.6055 15.0156C18.4753 14.9896 18.3516 14.9635 18.2344 14.9375C18.2344 15.2109 18.1823 15.4258 18.0781 15.582C17.974 15.7383 17.8372 15.8685 17.668 15.9727C17.5117 16.0638 17.3294 16.1419 17.1211 16.207C16.9128 16.2591 16.7044 16.3307 16.4961 16.4219C16.3008 16.5 16.112 16.6042 15.9297 16.7344C15.7604 16.8516 15.6237 17.0208 15.5195 17.2422C15.6497 17.3854 15.8125 17.4701 16.0078 17.4961C16.2031 17.5091 16.4049 17.5091 16.6133 17.4961C16.8216 17.4701 17.0234 17.457 17.2188 17.457C17.4271 17.457 17.6094 17.5091 17.7656 17.6133L17.7852 17.6328L17.8047 17.6133C18.1172 17.5742 18.4167 17.5026 18.7031 17.3984C19.0026 17.2812 19.2891 17.1641 19.5625 17.0469C19.849 16.9167 20.1354 16.7995 20.4219 16.6953C20.7214 16.5781 21.0273 16.4935 21.3398 16.4414C21.4049 16.5456 21.4896 16.6042 21.5938 16.6172C21.7109 16.6302 21.8216 16.6237 21.9258 16.5977L21.9453 16.5586C21.9714 16.4674 21.9974 16.3893 22.0234 16.3242C22.0495 16.2461 22.0885 16.1615 22.1406 16.0703C22.2318 15.9271 22.3424 15.8164 22.4727 15.7383C22.6029 15.6602 22.7396 15.6016 22.8828 15.5625C23.0391 15.5234 23.2018 15.4974 23.3711 15.4844C23.5404 15.4714 23.7096 15.4518 23.8789 15.4258H23.918L23.9375 15.3672C23.9896 15.2109 24.0547 15.1068 24.1328 15.0547C24.224 14.9896 24.3151 14.944 24.4062 14.918C24.5104 14.8919 24.6146 14.8724 24.7188 14.8594C24.8359 14.8464 24.9466 14.8073 25.0508 14.7422C25.2852 14.8203 25.4805 14.7943 25.6367 14.6641C25.793 14.5339 25.9427 14.3971 26.0859 14.2539L26.2422 14.4492L26.3008 14.3711C26.4961 14.1888 26.6393 14.0521 26.7305 13.9609C26.8346 13.8698 26.9323 13.7917 27.0234 13.7266C27.1146 13.6484 27.2188 13.5768 27.3359 13.5117C27.4661 13.4336 27.6419 13.3229 27.8633 13.1797C28.0456 13.0625 28.2214 12.9453 28.3906 12.8281C28.5729 12.7109 28.7487 12.5807 28.918 12.4375C28.9831 12.4635 29.0156 12.5156 29.0156 12.5938C29.0156 12.6589 29.0156 12.724 29.0156 12.7891C29.0026 12.8151 28.9896 12.8542 28.9766 12.9062C28.9766 12.9583 28.9896 12.9974 29.0156 13.0234ZM20.9297 10.582C20.9167 10.569 20.9036 10.5625 20.8906 10.5625C20.8906 10.5625 20.8841 10.556 20.8711 10.543C20.5977 10.3997 20.3698 10.3346 20.1875 10.3477C20.0052 10.3477 19.8359 10.3997 19.6797 10.5039C19.5365 10.5951 19.3997 10.7188 19.2695 10.875C19.1523 11.0182 19.0221 11.1549 18.8789 11.2852C18.7487 11.4023 18.5924 11.4935 18.4102 11.5586C18.2279 11.6237 18.0065 11.6172 17.7461 11.5391C17.707 11.7474 17.668 11.9557 17.6289 12.1641C17.6029 12.3594 17.5833 12.5612 17.5703 12.7695C17.349 12.8477 17.1732 12.9583 17.043 13.1016C16.9258 13.2448 16.8216 13.401 16.7305 13.5703C16.6523 13.7396 16.5742 13.9219 16.4961 14.1172C16.431 14.2995 16.3398 14.4753 16.2227 14.6445L16.3008 14.7422C16.3529 14.7161 16.4115 14.7357 16.4766 14.8008C16.5417 14.8659 16.5872 14.9115 16.6133 14.9375C16.7565 14.7292 16.9453 14.5534 17.1797 14.4102C17.4271 14.2669 17.6745 14.1367 17.9219 14.0195C18.1823 13.8893 18.4297 13.7526 18.6641 13.6094C18.8984 13.4661 19.0742 13.2773 19.1914 13.043C19.6081 12.9258 19.9206 12.6914 20.1289 12.3398C20.3372 11.9883 20.513 11.6237 20.6562 11.2461C20.6823 11.168 20.7279 11.0573 20.793 10.9141C20.8711 10.7578 20.9167 10.6471 20.9297 10.582ZM47.9805 15.6016C47.8633 15.7057 47.7005 15.8424 47.4922 16.0117C47.2969 16.168 47.1667 16.3112 47.1016 16.4414C47.0234 16.5716 46.9583 16.6888 46.9062 16.793C46.8672 16.8971 46.8151 16.9883 46.75 17.0664C46.6979 17.1315 46.6198 17.1836 46.5156 17.2227C46.4245 17.2617 46.2943 17.2812 46.125 17.2812C46.125 17.3203 46.0534 17.4049 45.9102 17.5352C45.7799 17.6523 45.6367 17.7826 45.4805 17.9258C45.3242 18.056 45.181 18.1862 45.0508 18.3164C44.9206 18.4336 44.8555 18.5117 44.8555 18.5508L44.6797 18.4531C44.6536 18.4401 44.5755 18.4466 44.4453 18.4727C44.3281 18.4857 44.1849 18.5247 44.0156 18.5898C43.8594 18.6419 43.7031 18.7201 43.5469 18.8242C43.3906 18.9284 43.2669 19.0651 43.1758 19.2344L43.0977 19.2148C42.9023 19.1628 42.7005 19.1497 42.4922 19.1758C42.2969 19.2148 42.1016 19.2344 41.9062 19.2344C41.4896 19.2604 41.1836 19.1953 40.9883 19.0391C40.793 18.8958 40.5846 18.6159 40.3633 18.1992C40.3112 18.1081 40.2656 18.0104 40.2266 17.9062C40.1875 17.8021 40.1549 17.6979 40.1289 17.5938V17.5156C40.3112 17.4115 40.4089 17.2747 40.4219 17.1055C40.4349 16.9232 40.4284 16.7344 40.4023 16.5391C40.3763 16.3438 40.3568 16.1549 40.3438 15.9727C40.3438 15.7904 40.4154 15.6406 40.5586 15.5234C40.4805 15.3151 40.487 15.1198 40.5781 14.9375C40.6823 14.7422 40.7799 14.5599 40.8711 14.3906C40.9622 14.2214 41.0078 14.0586 41.0078 13.9023C41.0078 13.7461 40.8646 13.5833 40.5781 13.4141C40.2786 13.5312 39.9922 13.681 39.7188 13.8633C39.4583 14.0326 39.1914 14.2148 38.918 14.4102C38.6576 14.5924 38.3906 14.7747 38.1172 14.957C37.8568 15.1393 37.5768 15.2891 37.2773 15.4062C37.0039 15.7057 36.7174 15.9661 36.418 16.1875C36.1185 16.3958 35.8255 16.6172 35.5391 16.8516C35.2656 17.0859 35.0117 17.3529 34.7773 17.6523C34.556 17.9388 34.3867 18.2969 34.2695 18.7266C34.2044 18.6484 34.1393 18.5964 34.0742 18.5703C34.0091 18.5443 33.9245 18.5182 33.8203 18.4922C33.6771 18.4531 33.5729 18.4141 33.5078 18.375C33.4427 18.3229 33.3581 18.2513 33.2539 18.1602L33.2734 18.1211C33.3906 17.7826 33.5273 17.4375 33.6836 17.0859C33.8398 16.7344 33.918 16.3828 33.918 16.0312C33.918 15.901 33.9049 15.7839 33.8789 15.6797C33.8529 15.5625 33.8398 15.4388 33.8398 15.3086C33.8398 15.0742 33.8789 14.8594 33.957 14.6641C34.0352 14.4688 34.1198 14.2865 34.2109 14.1172C34.3151 13.9479 34.4062 13.7852 34.4844 13.6289C34.5755 13.4596 34.6211 13.2839 34.6211 13.1016C34.6211 12.9583 34.5885 12.8151 34.5234 12.6719C34.4583 12.5286 34.3737 12.4049 34.2695 12.3008C34.0742 12.2878 33.8919 12.3138 33.7227 12.3789C33.5534 12.431 33.3841 12.4961 33.2148 12.5742C33.0456 12.6523 32.8698 12.724 32.6875 12.7891C32.5052 12.8411 32.3099 12.8607 32.1016 12.8477C31.8281 13.1211 31.5482 13.3945 31.2617 13.668C30.9753 13.9284 30.6888 14.1888 30.4023 14.4492C29.8034 14.9831 29.2174 15.5365 28.6445 16.1094C28.0846 16.6823 27.6354 17.3333 27.2969 18.0625C27.2318 18.2057 27.1732 18.3555 27.1211 18.5117C27.082 18.6549 27.0299 18.7982 26.9648 18.9414C26.9648 18.9674 26.9518 18.9935 26.9258 19.0195H26.8281C26.6849 19.0195 26.5872 19.0586 26.5352 19.1367C26.4961 19.2148 26.4635 19.2995 26.4375 19.3906C26.4245 19.4948 26.4049 19.5924 26.3789 19.6836C26.3529 19.7747 26.2943 19.8333 26.2031 19.8594C26.099 19.8854 26.0013 19.8659 25.9102 19.8008C25.806 19.7357 25.7214 19.6706 25.6562 19.6055L25.6367 19.5859C25.5065 19.3776 25.4349 19.1628 25.4219 18.9414C25.4089 18.7201 25.4349 18.5052 25.5 18.2969C25.5521 18.0755 25.6367 17.8607 25.7539 17.6523C25.8581 17.444 25.9622 17.2487 26.0664 17.0664C26.2227 16.793 26.3659 16.513 26.4961 16.2266C26.6393 15.9271 26.7109 15.6146 26.7109 15.2891C26.7109 15.1458 26.6914 15.0221 26.6523 14.918C26.6263 14.8008 26.6003 14.6836 26.5742 14.5664L27.0039 14.2734C26.9388 14.1823 26.8997 14.1042 26.8867 14.0391C26.8867 13.9609 26.8867 13.8893 26.8867 13.8242C26.8997 13.7591 26.9062 13.7005 26.9062 13.6484C26.9193 13.5833 26.9128 13.5182 26.8867 13.4531V13.3945L27.043 13.2188C27.0169 12.7891 27.0039 12.3854 27.0039 12.0078C27.0039 11.6302 26.9258 11.2331 26.7695 10.8164C26.9518 10.6471 27.1276 10.6081 27.2969 10.6992C27.4661 10.7773 27.6354 10.8685 27.8047 10.9727V10.9922L27.8242 11.0117C27.9284 11.168 28.0195 11.3568 28.0977 11.5781C28.1758 11.7995 28.2344 12.0339 28.2734 12.2812C28.3255 12.5156 28.3646 12.75 28.3906 12.9844C28.4167 13.2188 28.4297 13.4271 28.4297 13.6094C28.4297 13.6615 28.4232 13.7135 28.4102 13.7656C28.4102 13.8047 28.4102 13.8503 28.4102 13.9023L28.293 14.0195C28.3581 14.0846 28.4297 14.1497 28.5078 14.2148C28.5859 14.2799 28.6706 14.306 28.7617 14.293C28.8398 14.0586 28.9635 13.9089 29.1328 13.8438C29.3021 13.7656 29.4714 13.707 29.6406 13.668C29.8229 13.6289 29.9792 13.5768 30.1094 13.5117C30.2526 13.4336 30.3242 13.2773 30.3242 13.043C30.3242 12.9909 30.3177 12.9518 30.3047 12.9258L30.3438 12.8867C30.7083 12.5221 31.0794 12.1966 31.457 11.9102C31.8477 11.6107 32.2513 11.3893 32.668 11.2461C33.0977 11.1029 33.5404 11.0443 33.9961 11.0703C34.4648 11.0964 34.9661 11.2396 35.5 11.5L35.5391 11.5195L35.7539 12.3203L35.6172 12.457C35.7474 12.6393 35.793 12.8542 35.7539 13.1016C35.7279 13.3359 35.6758 13.5703 35.5977 13.8047C35.5195 14.0391 35.4479 14.2604 35.3828 14.4688C35.3177 14.6641 35.3242 14.8073 35.4023 14.8984C35.4674 14.9896 35.5846 15.0286 35.7539 15.0156C35.9362 15.0026 36.0794 14.9896 36.1836 14.9766C36.2878 14.8333 36.431 14.7096 36.6133 14.6055C36.8086 14.5013 36.9974 14.4036 37.1797 14.3125C37.375 14.2214 37.5443 14.1302 37.6875 14.0391C37.8307 13.9349 37.9089 13.8242 37.9219 13.707C38.1302 13.7461 38.2995 13.7396 38.4297 13.6875C38.5599 13.6224 38.6641 13.5312 38.7422 13.4141C38.8203 13.2969 38.8919 13.1732 38.957 13.043C39.0221 12.8997 39.0938 12.7695 39.1719 12.6523C39.263 12.5221 39.3737 12.4245 39.5039 12.3594C39.6341 12.2943 39.8099 12.2747 40.0312 12.3008C40.3307 12.0013 40.6823 11.7865 41.0859 11.6562C41.5026 11.513 41.9193 11.4349 42.3359 11.4219C42.6354 11.4089 42.8438 11.5 42.9609 11.6953C43.0781 11.8776 43.1367 12.099 43.1367 12.3594C43.1367 12.6979 43.0586 13.0234 42.9023 13.3359C42.7461 13.6484 42.5703 13.9674 42.375 14.293C42.1797 14.6185 42.0039 14.957 41.8477 15.3086C41.6914 15.6602 41.6133 16.0508 41.6133 16.4805C41.6133 16.5195 41.6133 16.5911 41.6133 16.6953C41.6133 16.7865 41.6198 16.8841 41.6328 16.9883C41.6458 17.0794 41.6589 17.1706 41.6719 17.2617C41.6979 17.3398 41.7305 17.3919 41.7695 17.418C41.8216 17.444 41.8672 17.4635 41.9062 17.4766L41.8086 17.5547C42.1081 17.5938 42.375 17.6523 42.6094 17.7305C42.8438 17.7956 43.0977 17.7695 43.3711 17.6523C43.4492 17.6263 43.5273 17.6068 43.6055 17.5938C43.6966 17.5807 43.7812 17.5612 43.8594 17.5352C43.9766 17.5221 44.0482 17.4766 44.0742 17.3984C44.1003 17.3073 44.1458 17.2227 44.2109 17.1445C44.2891 17.0534 44.4062 16.9753 44.5625 16.9102C44.7318 16.832 45.0052 16.793 45.3828 16.793V16.4805C45.6432 16.4023 45.8646 16.3047 46.0469 16.1875C46.2292 16.0573 46.4049 15.9401 46.5742 15.8359C46.7565 15.7318 46.9518 15.6536 47.1602 15.6016C47.3815 15.5495 47.6549 15.5495 47.9805 15.6016ZM52.1406 6.8125C51.9062 6.90365 51.776 7.04036 51.75 7.22266C51.724 7.40495 51.7109 7.59375 51.7109 7.78906C51.724 7.98438 51.7174 8.16667 51.6914 8.33594C51.6654 8.50521 51.5352 8.61589 51.3008 8.66797C51.2096 8.51172 51.0924 8.36849 50.9492 8.23828C50.819 8.09505 50.6888 7.95833 50.5586 7.82812C50.4284 7.6849 50.3242 7.53516 50.2461 7.37891C50.168 7.22266 50.1419 7.03385 50.168 6.8125L51.1445 5.67969C51.3008 5.73177 51.4245 5.79688 51.5156 5.875C51.6068 5.95312 51.6849 6.04427 51.75 6.14844C51.8151 6.2526 51.8737 6.36328 51.9258 6.48047C51.9909 6.58464 52.0625 6.69531 52.1406 6.8125ZM55.9297 15.5625C55.9427 15.849 55.9167 16.0508 55.8516 16.168C55.7995 16.2852 55.7344 16.3828 55.6562 16.4609C55.5781 16.526 55.5065 16.6042 55.4414 16.6953C55.3893 16.7734 55.3633 16.9167 55.3633 17.125C55.0638 17.4505 54.8229 17.6914 54.6406 17.8477C54.4583 17.9909 54.2826 18.1146 54.1133 18.2188C53.944 18.3099 53.7552 18.4141 53.5469 18.5312C53.3385 18.6484 53.0521 18.8307 52.6875 19.0781L52.5508 19.0977C52.5117 19.293 52.4401 19.4036 52.3359 19.4297C52.2448 19.4688 52.1341 19.4883 52.0039 19.4883C51.8867 19.4883 51.7695 19.5013 51.6523 19.5273C51.5352 19.5534 51.4375 19.6641 51.3594 19.8594C51.138 19.9245 50.9492 19.9505 50.793 19.9375C50.6367 19.9245 50.4349 19.918 50.1875 19.918C50.1094 19.918 50.0052 19.9115 49.875 19.8984C49.7578 19.8854 49.6602 19.8919 49.582 19.918C49.5299 19.931 49.4714 19.9635 49.4062 20.0156C49.3542 20.0807 49.2956 20.1328 49.2305 20.1719C49.1654 20.2109 49.1003 20.224 49.0352 20.2109C48.9701 20.2109 48.9115 20.1589 48.8594 20.0547C48.7031 20.0938 48.5599 20.0938 48.4297 20.0547C48.2995 20.0156 48.1758 19.9505 48.0586 19.8594C47.9414 19.7682 47.8307 19.6576 47.7266 19.5273C47.6354 19.4102 47.5443 19.2995 47.4531 19.1953C47.388 19.1172 47.3164 19.0456 47.2383 18.9805C47.1602 18.9154 47.0885 18.8503 47.0234 18.7852C46.8802 18.6419 46.776 18.4596 46.7109 18.2383C46.6458 18.0169 46.6068 17.7891 46.5938 17.5547C46.5807 17.3203 46.5872 17.0859 46.6133 16.8516C46.6393 16.6172 46.6784 16.4089 46.7305 16.2266C46.8477 16.1094 46.9323 15.9792 46.9844 15.8359C47.0234 15.6797 47.056 15.5234 47.082 15.3672C47.1211 15.2109 47.1602 15.0612 47.1992 14.918C47.2513 14.7617 47.3359 14.625 47.4531 14.5078C47.4531 14.3385 47.4792 14.1823 47.5312 14.0391C47.5964 13.8958 47.6745 13.7591 47.7656 13.6289C47.8698 13.4987 47.9805 13.3815 48.0977 13.2773C48.2279 13.1602 48.3451 13.0495 48.4492 12.9453C48.5534 12.9453 48.6576 12.9453 48.7617 12.9453C48.8659 12.9323 48.9635 12.9388 49.0547 12.9648C49.1458 12.9779 49.224 13.0169 49.2891 13.082C49.3542 13.1341 49.4062 13.2253 49.4453 13.3555C49.5365 13.707 49.5104 13.9935 49.3672 14.2148C49.237 14.4232 49.0872 14.625 48.918 14.8203C48.7487 15.0156 48.612 15.2174 48.5078 15.4258C48.4036 15.6341 48.4297 15.901 48.5859 16.2266C48.4427 16.2266 48.3451 16.2656 48.293 16.3438C48.2539 16.4219 48.2214 16.513 48.1953 16.6172C48.1823 16.7083 48.1562 16.7995 48.1172 16.8906C48.0781 16.9818 48 17.0469 47.8828 17.0859C47.9609 17.1641 48 17.3008 48 17.4961C48.013 17.6914 48.0326 17.8802 48.0586 18.0625C48.0977 18.2318 48.1562 18.3685 48.2344 18.4727C48.3255 18.5768 48.4883 18.5833 48.7227 18.4922C48.8919 18.6354 49.0938 18.694 49.3281 18.668C49.5755 18.6419 49.8034 18.6354 50.0117 18.6484C50.194 18.5312 50.3503 18.4727 50.4805 18.4727C50.6107 18.4596 50.7344 18.4727 50.8516 18.5117C50.9688 18.5378 51.0924 18.5638 51.2227 18.5898C51.3529 18.6159 51.5091 18.5964 51.6914 18.5312C51.7435 18.3099 51.8346 18.1797 51.9648 18.1406C52.0951 18.1016 52.2253 18.082 52.3555 18.082C52.4857 18.069 52.6029 18.043 52.707 18.0039C52.8242 17.9648 52.9023 17.8346 52.9414 17.6133C53.0456 17.4831 53.1693 17.4115 53.3125 17.3984C53.4557 17.3724 53.599 17.3464 53.7422 17.3203C53.8984 17.2943 54.0352 17.2422 54.1523 17.1641C54.2826 17.0729 54.3737 16.9036 54.4258 16.6562C54.6471 16.487 54.8034 16.3633 54.8945 16.2852C54.9987 16.194 55.0833 16.1224 55.1484 16.0703C55.2135 16.0182 55.2982 15.9596 55.4023 15.8945C55.5065 15.8294 55.6823 15.7188 55.9297 15.5625ZM65.0312 18.2969C65.0443 18.4531 65.0182 18.5703 64.9531 18.6484C64.888 18.7266 64.7969 18.7852 64.6797 18.8242C64.5755 18.8633 64.4583 18.8958 64.3281 18.9219C64.1979 18.9349 64.0872 18.9674 63.9961 19.0195C63.6185 18.9805 63.2539 18.9284 62.9023 18.8633C62.5508 18.7852 62.2253 18.6745 61.9258 18.5312C61.6263 18.375 61.3529 18.1732 61.1055 17.9258C60.8711 17.6784 60.6693 17.3659 60.5 16.9883C60.6693 16.7148 60.7279 16.4154 60.6758 16.0898C60.6237 15.7513 60.5716 15.4258 60.5195 15.1133C60.4805 14.8008 60.487 14.5143 60.5391 14.2539C60.6042 13.9935 60.832 13.7852 61.2227 13.6289C61.1966 13.4857 61.1966 13.3294 61.2227 13.1602C61.2617 12.9909 61.2161 12.8477 61.0859 12.7305C60.6302 12.8867 60.2331 13.1081 59.8945 13.3945C59.556 13.681 59.2305 13.9935 58.918 14.332C58.6185 14.6706 58.3125 15.0156 58 15.3672C57.7005 15.7057 57.3685 16.0052 57.0039 16.2656C56.8346 16.2786 56.6523 16.2721 56.457 16.2461C56.2747 16.207 56.1185 16.2591 55.9883 16.4023C56.0013 16.4935 56.0339 16.5716 56.0859 16.6367C56.138 16.7018 56.1771 16.7669 56.2031 16.832C56.2422 16.8971 56.2617 16.9688 56.2617 17.0469C56.2617 17.112 56.2161 17.1901 56.125 17.2812C55.9948 17.4115 55.8516 17.5221 55.6953 17.6133C55.5521 17.6914 55.4089 17.7826 55.2656 17.8867C55.1354 17.9779 55.0247 18.0885 54.9336 18.2188C54.8424 18.349 54.7969 18.5247 54.7969 18.7461C54.7188 18.707 54.6471 18.7005 54.582 18.7266C54.5169 18.7396 54.4583 18.7721 54.4062 18.8242C54.3411 18.8763 54.2826 18.9349 54.2305 19C54.1784 19.0651 54.1263 19.1172 54.0742 19.1562C54.0482 19.2214 54.0547 19.2734 54.0938 19.3125C54.1328 19.3646 54.1784 19.4167 54.2305 19.4688C54.1784 19.612 54.1133 19.6966 54.0352 19.7227C53.944 19.7617 53.8529 19.7682 53.7617 19.7422C53.6576 19.7161 53.5599 19.6706 53.4688 19.6055C53.3646 19.5534 53.2734 19.5078 53.1953 19.4688C53.1562 19.2995 53.1302 19.1042 53.1172 18.8828C53.1042 18.6615 53.1107 18.4466 53.1367 18.2383C53.1628 18.0169 53.2148 17.8086 53.293 17.6133C53.3711 17.418 53.4883 17.2552 53.6445 17.125C53.6966 17.0859 53.7292 17.0664 53.7422 17.0664C53.7552 17.0534 53.7617 17.0469 53.7617 17.0469C53.7617 17.0469 53.7682 17.0469 53.7812 17.0469C53.7943 17.0339 53.8203 17.0078 53.8594 16.9688C53.9635 16.8516 54.0352 16.7279 54.0742 16.5977C54.1133 16.4544 54.1458 16.3112 54.1719 16.168C54.1979 16.0247 54.237 15.888 54.2891 15.7578C54.3281 15.6146 54.4062 15.4909 54.5234 15.3867C54.4714 15.1784 54.4714 14.9961 54.5234 14.8398C54.5885 14.6706 54.6667 14.5143 54.7578 14.3711C54.862 14.2148 54.9596 14.0651 55.0508 13.9219C55.1549 13.7656 55.2201 13.5964 55.2461 13.4141C55.2591 13.349 55.2591 13.2904 55.2461 13.2383C55.2461 13.1732 55.2461 13.1081 55.2461 13.043C55.2201 12.8346 55.2396 12.6784 55.3047 12.5742C55.3828 12.457 55.474 12.3659 55.5781 12.3008C55.6953 12.2227 55.8125 12.1445 55.9297 12.0664C56.0599 11.9883 56.1706 11.8711 56.2617 11.7148C56.6393 11.8971 56.8607 12.1445 56.9258 12.457C57.0039 12.7565 57.0299 13.0951 57.0039 13.4727C56.7826 13.6159 56.6133 13.8177 56.4961 14.0781C56.3789 14.3255 56.3008 14.5664 56.2617 14.8008C56.2878 14.8789 56.3203 14.9245 56.3594 14.9375C56.4115 14.9375 56.4635 14.931 56.5156 14.918C56.5807 14.8919 56.6393 14.8659 56.6914 14.8398C56.7435 14.8138 56.7956 14.8008 56.8477 14.8008C57.3164 14.4753 57.7786 14.1107 58.2344 13.707C58.7031 13.3034 59.0677 12.8411 59.3281 12.3203C59.7057 12.138 60.0638 11.9297 60.4023 11.6953C60.7409 11.4479 61.112 11.2656 61.5156 11.1484L61.9648 10.6992C62.0299 10.8034 62.1081 10.8294 62.1992 10.7773C62.2904 10.7122 62.3815 10.6406 62.4727 10.5625C62.5638 10.4844 62.6484 10.4388 62.7266 10.4258C62.8177 10.4128 62.9023 10.5039 62.9805 10.6992C63.1107 11.0378 63.1432 11.3698 63.0781 11.6953C63.013 12.0078 62.9089 12.3203 62.7656 12.6328C62.6354 12.9323 62.4987 13.2383 62.3555 13.5508C62.2122 13.8633 62.1276 14.1823 62.1016 14.5078C62.1016 14.5859 62.1016 14.6706 62.1016 14.7617C62.1016 14.8398 62.0951 14.9245 62.082 15.0156C62.056 15.2891 62.0169 15.5885 61.9648 15.9141C61.9258 16.2266 61.9453 16.513 62.0234 16.7734C62.0885 17.0078 62.2253 17.2161 62.4336 17.3984C62.6419 17.5807 62.8242 17.763 62.9805 17.9453C63.0716 17.9323 63.1628 17.9388 63.2539 17.9648C63.3451 17.9909 63.4297 18.0169 63.5078 18.043C63.599 18.069 63.6836 18.082 63.7617 18.082C63.8398 18.069 63.918 18.0234 63.9961 17.9453C64.0872 17.9062 64.1719 17.9128 64.25 17.9648C64.3411 18.0039 64.4258 18.056 64.5039 18.1211C64.582 18.1862 64.6602 18.2448 64.7383 18.2969C64.8294 18.3359 64.9271 18.3359 65.0312 18.2969ZM81.3008 14.7422C81.0143 15.3932 80.7539 15.901 80.5195 16.2656C80.2852 16.6172 80.0247 16.9102 79.7383 17.1445C79.4648 17.3789 79.1458 17.6003 78.7812 17.8086C78.4167 18.0039 77.9674 18.2839 77.4336 18.6484C77.2122 18.6615 76.9714 18.7135 76.7109 18.8047C76.4505 18.8828 76.2292 18.9935 76.0469 19.1367C75.6562 19.0977 75.2982 19.013 74.9727 18.8828C74.6471 18.7526 74.3411 18.5443 74.0547 18.2578C73.9896 18.1927 73.931 18.1211 73.8789 18.043C73.8268 17.9648 73.7682 17.8932 73.7031 17.8281C73.5599 17.6589 73.4688 17.5091 73.4297 17.3789C73.3906 17.2487 73.3581 17.0794 73.332 16.8711C73.2799 16.5716 73.2018 16.3568 73.0977 16.2266C72.9935 16.0964 72.7917 16.1615 72.4922 16.4219L72.3164 16.2656L72.2773 16.3047C72.1602 16.3958 72.0625 16.474 71.9844 16.5391C71.9193 16.6042 71.8477 16.6758 71.7695 16.7539C71.7044 16.819 71.6393 16.8906 71.5742 16.9688C71.5091 17.0469 71.431 17.1445 71.3398 17.2617C71.1836 17.457 71.0078 17.6589 70.8125 17.8672C70.6302 18.0755 70.4154 18.2188 70.168 18.2969C70.1289 18.3359 70.0964 18.375 70.0703 18.4141C70.0443 18.4401 69.9987 18.4596 69.9336 18.4727C69.8555 18.4987 69.7643 18.4922 69.6602 18.4531C69.556 18.4141 69.4714 18.362 69.4062 18.2969C69.263 18.2969 69.1328 18.3359 69.0156 18.4141C68.9115 18.4792 68.8073 18.5703 68.7031 18.6875C68.612 18.7917 68.5208 18.9023 68.4297 19.0195C68.3516 19.1367 68.2604 19.2344 68.1562 19.3125C67.9479 19.2344 67.7526 19.2214 67.5703 19.2734C67.401 19.3255 67.2318 19.3711 67.0625 19.4102C66.8932 19.4622 66.724 19.4818 66.5547 19.4688C66.3854 19.4688 66.2161 19.3711 66.0469 19.1758C65.9688 18.7852 65.9036 18.4271 65.8516 18.1016C65.7995 17.8281 65.7539 17.5677 65.7148 17.3203C65.6758 17.0729 65.6562 16.9232 65.6562 16.8711C65.7214 16.806 65.7539 16.7214 65.7539 16.6172C65.7409 16.5 65.7214 16.4023 65.6953 16.3242C65.6693 16.3112 65.6562 16.2982 65.6562 16.2852C65.6562 16.2721 65.6432 16.2591 65.6172 16.2461C65.6823 16.194 65.7344 16.1289 65.7734 16.0508C65.7995 15.9727 65.8451 15.9076 65.9102 15.8555C65.8711 15.7513 65.8255 15.6341 65.7734 15.5039C65.7214 15.3737 65.6953 15.2435 65.6953 15.1133C65.7344 15.0091 65.7734 14.9505 65.8125 14.9375C65.8385 14.9245 65.9102 14.9049 66.0273 14.8789C66.0143 14.8138 66.0013 14.7552 65.9883 14.7031C65.9622 14.638 65.9557 14.5729 65.9688 14.5078C65.9688 14.3776 66.0013 14.2669 66.0664 14.1758C66.1185 14.0716 66.1771 13.974 66.2422 13.8828C66.3073 13.7786 66.3659 13.668 66.418 13.5508C66.4701 13.4336 66.4961 13.2969 66.4961 13.1406V13.043C66.6914 13.043 66.8216 12.9909 66.8867 12.8867C66.9518 12.7695 66.9909 12.6393 67.0039 12.4961C67.0169 12.3529 67.0234 12.2096 67.0234 12.0664C67.0234 11.9232 67.0625 11.819 67.1406 11.7539C67.1927 11.7018 67.2383 11.6823 67.2773 11.6953C67.3294 11.6953 67.388 11.6953 67.4531 11.6953C67.5312 11.6042 67.5833 11.5391 67.6094 11.5C67.6354 11.4479 67.6289 11.3568 67.5898 11.2266C67.681 11.2266 67.7526 11.207 67.8047 11.168C67.8568 11.1289 67.8958 11.0768 67.9219 11.0117C67.9609 10.9466 67.9935 10.8815 68.0195 10.8164C68.0586 10.7513 68.1042 10.6927 68.1562 10.6406C68.1562 10.3151 68.2409 10.0872 68.4102 9.95703C68.5794 9.82682 68.7682 9.72266 68.9766 9.64453C69.1979 9.55339 69.4128 9.44922 69.6211 9.33203C69.8424 9.21484 70.0052 9.00651 70.1094 8.70703C70.2786 8.8112 70.4219 8.82422 70.5391 8.74609C70.6562 8.65495 70.7669 8.5638 70.8711 8.47266C70.9753 8.36849 71.0924 8.30339 71.2227 8.27734C71.3529 8.23828 71.5156 8.32292 71.7109 8.53125C71.7891 8.28385 71.9453 8.15365 72.1797 8.14062C72.4271 8.1276 72.6484 8.17969 72.8438 8.29688V8.31641H72.8633C73.0716 8.35547 73.2279 8.45964 73.332 8.62891C73.4362 8.78516 73.5208 8.96745 73.5859 9.17578C73.6641 9.37109 73.7422 9.56641 73.8203 9.76172C73.9115 9.95703 74.0352 10.1133 74.1914 10.2305C74.2695 9.89193 74.3411 9.54688 74.4062 9.19531C74.4844 8.84375 74.6081 8.51172 74.7773 8.19922C74.8945 8.34245 75.0182 8.36849 75.1484 8.27734L75.1289 8.23828C75.1289 8.02995 75.168 7.84115 75.2461 7.67188C75.3372 7.5026 75.4219 7.33984 75.5 7.18359C75.5911 7.01432 75.6432 6.84505 75.6562 6.67578C75.6823 6.49349 75.6237 6.29167 75.4805 6.07031C75.7018 6.00521 75.8581 5.88151 75.9492 5.69922C76.0534 5.51693 76.1315 5.32161 76.1836 5.11328C76.2487 4.89193 76.3138 4.67057 76.3789 4.44922C76.457 4.22786 76.5742 4.03906 76.7305 3.88281C76.7305 3.84375 76.724 3.80469 76.7109 3.76562C76.7109 3.72656 76.7109 3.6875 76.7109 3.64844C76.724 3.54427 76.763 3.45312 76.8281 3.375C76.8932 3.29688 76.9648 3.21875 77.043 3.14062C77.1211 3.0625 77.1862 2.97786 77.2383 2.88672C77.3034 2.78255 77.3294 2.65885 77.3164 2.51562C77.4466 2.34635 77.5638 2.125 77.668 1.85156C77.7721 1.5651 77.8828 1.29818 78 1.05078C78.1172 0.803385 78.2539 0.621094 78.4102 0.503906C78.5664 0.373698 78.7682 0.380208 79.0156 0.523438C79.0677 0.679688 79.0872 0.822917 79.0742 0.953125C79.0612 1.07031 78.9896 1.19401 78.8594 1.32422C78.9375 1.40234 78.9961 1.46745 79.0352 1.51953C78.9961 1.92318 78.918 2.32682 78.8008 2.73047C78.6966 3.12109 78.5924 3.50521 78.4883 3.88281C78.5143 3.90885 78.5404 3.9349 78.5664 3.96094C78.5924 3.98698 78.6185 4.01302 78.6445 4.03906C78.4232 4.35156 78.2409 4.66406 78.0977 4.97656C77.9674 5.28906 77.8503 5.6276 77.7461 5.99219C77.707 6.13542 77.668 6.28516 77.6289 6.44141C77.6029 6.59766 77.5638 6.74089 77.5117 6.87109C77.4466 7.0013 77.3685 7.14453 77.2773 7.30078C77.1862 7.44401 77.1081 7.58724 77.043 7.73047C76.8997 8.02995 76.7695 8.33594 76.6523 8.64844C76.5482 8.94792 76.444 9.25391 76.3398 9.56641C76.2096 9.94401 76.0729 10.3151 75.9297 10.6797C75.7995 11.0443 75.6367 11.4023 75.4414 11.7539V12.0664C75.4284 12.2096 75.3828 12.3138 75.3047 12.3789C75.2266 12.431 75.1354 12.4831 75.0312 12.5352C74.9401 12.5742 74.849 12.6393 74.7578 12.7305C74.6667 12.8086 74.6016 12.9453 74.5625 13.1406V13.1602L74.582 13.1797C74.7122 13.4661 74.7383 13.7331 74.6602 13.9805C74.5951 14.2148 74.5169 14.4492 74.4258 14.6836C74.3346 14.9049 74.2695 15.1263 74.2305 15.3477C74.2044 15.569 74.2956 15.7969 74.5039 16.0312C74.4909 16.2917 74.543 16.5 74.6602 16.6562C74.7773 16.7995 74.9141 16.9232 75.0703 17.0273C75.2266 17.1315 75.3828 17.2292 75.5391 17.3203C75.7083 17.3984 75.832 17.5026 75.9102 17.6328C76.0404 17.5026 76.1771 17.4049 76.3203 17.3398C76.4766 17.2617 76.6263 17.2031 76.7695 17.1641C76.9258 17.125 77.0755 17.0924 77.2188 17.0664C77.375 17.0273 77.5247 16.9818 77.668 16.9297C78.0065 16.8385 78.2409 16.7279 78.3711 16.5977C78.5013 16.4674 78.5664 16.3828 78.5664 16.3438C78.5794 16.1615 78.6445 16.0443 78.7617 15.9922C78.8919 15.9401 79.0352 15.9076 79.1914 15.8945C79.3607 15.8685 79.5234 15.8359 79.6797 15.7969C79.849 15.7578 79.9727 15.6602 80.0508 15.5039C80.194 15.5169 80.3177 15.4714 80.4219 15.3672C80.5391 15.25 80.6432 15.1328 80.7344 15.0156C80.8255 14.8984 80.9167 14.8008 81.0078 14.7227C81.099 14.6445 81.1966 14.651 81.3008 14.7422ZM73.2734 11.7344C73.0651 11.5781 72.9219 11.4023 72.8438 11.207C72.7786 10.9987 72.7201 10.7904 72.668 10.582C72.6289 10.3737 72.5703 10.1784 72.4922 9.99609C72.4271 9.80078 72.2904 9.63802 72.082 9.50781L72.043 9.48828C72.0299 9.48828 71.9583 9.5013 71.8281 9.52734C71.6979 9.55339 71.6198 9.57292 71.5938 9.58594C71.6979 9.67708 71.763 9.75521 71.7891 9.82031C71.8151 9.88542 71.8151 9.95052 71.7891 10.0156C71.776 10.0807 71.7435 10.1523 71.6914 10.2305C71.6523 10.2956 71.6198 10.3802 71.5938 10.4844C71.5677 10.5104 71.5156 10.5039 71.4375 10.4648C71.3594 10.4128 71.3008 10.3737 71.2617 10.3477C71.0794 10.6211 70.819 10.8034 70.4805 10.8945C70.1549 10.9727 69.8424 11.0508 69.543 11.1289C69.569 11.194 69.5951 11.2526 69.6211 11.3047C69.6471 11.3568 69.6732 11.4154 69.6992 11.4805C69.3086 11.7409 69.0221 12.0599 68.8398 12.4375C68.6706 12.8021 68.5143 13.1862 68.3711 13.5898C68.2409 13.9805 68.0781 14.3646 67.8828 14.7422C67.7005 15.1068 67.4141 15.4193 67.0234 15.6797C67.0885 15.7839 67.1341 15.888 67.1602 15.9922C67.1862 16.0964 67.2708 16.1745 67.4141 16.2266C67.4531 16.3698 67.4661 16.5195 67.4531 16.6758C67.4531 16.819 67.4401 16.9622 67.4141 17.1055C67.388 17.2487 67.3685 17.3984 67.3555 17.5547C67.3555 17.6979 67.375 17.8477 67.4141 18.0039L67.4531 18.043C67.8568 18.1862 68.1693 18.1992 68.3906 18.082C68.625 17.9648 68.8268 17.8151 68.9961 17.6328C69.1784 17.4505 69.3737 17.2812 69.582 17.125C69.7904 16.9688 70.0833 16.9297 70.4609 17.0078L70.5391 16.8906C70.513 16.8255 70.4935 16.7669 70.4805 16.7148C70.4674 16.6628 70.4609 16.6042 70.4609 16.5391C70.474 16.3958 70.513 16.2852 70.5781 16.207C70.6432 16.1159 70.7279 16.0182 70.832 15.9141C70.9232 15.8099 71.0078 15.6992 71.0859 15.582C71.1771 15.4648 71.2617 15.3411 71.3398 15.2109C71.418 15.0938 71.5091 14.9961 71.6133 14.918C71.7174 14.8268 71.8542 14.8138 72.0234 14.8789L72.3945 13.4727C72.4076 13.4076 72.4661 13.349 72.5703 13.2969C72.6875 13.2448 72.7852 13.1862 72.8633 13.1211C72.9544 13.056 73.0065 12.9714 73.0195 12.8672C73.0456 12.763 72.974 12.6263 72.8047 12.457C72.8307 12.4049 72.8503 12.3398 72.8633 12.2617C72.8763 12.1836 72.8958 12.112 72.9219 12.0469C72.9479 11.9818 72.9805 11.9297 73.0195 11.8906C73.0586 11.8516 73.1237 11.8451 73.2148 11.8711L73.2734 11.7344ZM94.1719 13.0234C94.0547 13.1406 93.9635 13.2318 93.8984 13.2969C93.8464 13.362 93.7943 13.4271 93.7422 13.4922C93.7031 13.5443 93.651 13.6029 93.5859 13.668C93.5339 13.7331 93.4492 13.8307 93.332 13.9609C93.2279 14.0651 93.1302 14.1758 93.0391 14.293C92.9479 14.4102 92.8438 14.5143 92.7266 14.6055C92.5703 14.5664 92.4466 14.5859 92.3555 14.6641C92.2773 14.7422 92.1992 14.8333 92.1211 14.9375C92.056 15.0286 91.9909 15.1198 91.9258 15.2109C91.8737 15.2891 91.8021 15.3216 91.7109 15.3086C91.3984 15.4779 91.0859 15.6276 90.7734 15.7578C90.4609 15.875 90.1615 16.0508 89.875 16.2852L89.7188 16.1289L87.6875 17.1055C87.6224 17.1315 87.5573 17.1706 87.4922 17.2227C87.4271 17.2747 87.362 17.3203 87.2969 17.3594C87.0104 17.5156 86.7109 17.6589 86.3984 17.7891C86.099 17.9062 85.7995 18.0169 85.5 18.1211L85.2461 18.1992C85.3503 18.4596 85.3503 18.6419 85.2461 18.7461C85.1419 18.8503 84.9922 18.9284 84.7969 18.9805C84.6016 19.0195 84.3867 19.0456 84.1523 19.0586C83.918 19.0716 83.7357 19.1172 83.6055 19.1953C83.4492 19.1693 83.2865 19.1562 83.1172 19.1562C82.9609 19.1693 82.7982 19.1888 82.6289 19.2148C82.4466 19.2409 82.2773 19.2539 82.1211 19.2539C81.9648 19.2539 81.7956 19.2344 81.6133 19.1953H81.5742C81.3529 19.2995 81.1576 19.319 80.9883 19.2539C80.832 19.2018 80.6888 19.1107 80.5586 18.9805C80.4284 18.8372 80.3047 18.6745 80.1875 18.4922C80.0833 18.2969 79.9727 18.1211 79.8555 17.9648C79.7773 17.8607 79.6797 17.7109 79.5625 17.5156C79.4453 17.3203 79.3477 17.112 79.2695 16.8906C79.1784 16.6693 79.1263 16.4479 79.1133 16.2266C79.0872 15.9922 79.1328 15.7904 79.25 15.6211C79.3672 15.4518 79.4648 15.2695 79.543 15.0742C79.6081 14.8789 79.6406 14.651 79.6406 14.3906C79.6406 14.2995 79.6406 14.2148 79.6406 14.1367C79.6276 14.0586 79.6211 13.974 79.6211 13.8828C79.6862 13.8828 79.7578 13.8893 79.8359 13.9023C79.9141 13.9023 79.9857 13.9023 80.0508 13.9023C80.1289 13.8893 80.1875 13.8633 80.2266 13.8242C80.2786 13.7721 80.3047 13.6875 80.3047 13.5703C80.3047 13.5052 80.2786 13.4531 80.2266 13.4141C80.1875 13.375 80.1615 13.3359 80.1484 13.2969C80.2266 13.1797 80.2982 13.0885 80.3633 13.0234C80.4414 12.9453 80.5065 12.8737 80.5586 12.8086C80.6107 12.7305 80.6497 12.6458 80.6758 12.5547C80.7018 12.4505 80.6953 12.3138 80.6562 12.1445C80.8125 11.8711 80.9948 11.6302 81.2031 11.4219C81.4245 11.2005 81.6523 10.9987 81.8867 10.8164C82.1211 10.6211 82.362 10.4323 82.6094 10.25C82.8568 10.0677 83.0911 9.8724 83.3125 9.66406C83.5599 9.76823 83.7552 9.76823 83.8984 9.66406C84.0547 9.5599 84.1914 9.44922 84.3086 9.33203C84.4258 9.20182 84.543 9.09766 84.6602 9.01953C84.7773 8.94141 84.9336 8.97396 85.1289 9.11719L85.168 9.15625C85.5195 8.80469 85.8711 8.64844 86.2227 8.6875C86.5872 8.72656 86.8932 8.84375 87.1406 9.03906C87.401 9.23438 87.5703 9.46224 87.6484 9.72266C87.7266 9.97005 87.6549 10.1393 87.4336 10.2305C87.5768 10.3737 87.6484 10.543 87.6484 10.7383C87.6484 10.9336 87.5964 11.1029 87.4922 11.2461C87.375 11.4023 87.2708 11.5651 87.1797 11.7344C87.1016 11.8906 87.0169 12.0599 86.9258 12.2422C86.7956 12.5417 86.6523 12.8281 86.4961 13.1016C86.3398 13.362 86.1185 13.5833 85.832 13.7656C85.5977 13.7005 85.4349 13.7266 85.3438 13.8438C85.2656 13.9609 85.207 14.0911 85.168 14.2344C85.1289 14.3646 85.0833 14.4688 85.0312 14.5469C84.9792 14.625 84.8685 14.599 84.6992 14.4688L84.6602 14.4297L84.6211 14.4688C84.5169 14.5729 84.4323 14.6901 84.3672 14.8203C84.3151 14.9505 84.237 15.0482 84.1328 15.1133C84.0156 15.0742 83.8919 15.0417 83.7617 15.0156C83.6315 14.9896 83.5078 14.9635 83.3906 14.9375C83.3906 15.2109 83.3385 15.4258 83.2344 15.582C83.1302 15.7383 82.9935 15.8685 82.8242 15.9727C82.668 16.0638 82.4857 16.1419 82.2773 16.207C82.069 16.2591 81.8607 16.3307 81.6523 16.4219C81.457 16.5 81.2682 16.6042 81.0859 16.7344C80.9167 16.8516 80.7799 17.0208 80.6758 17.2422C80.806 17.3854 80.9688 17.4701 81.1641 17.4961C81.3594 17.5091 81.5612 17.5091 81.7695 17.4961C81.9779 17.4701 82.1797 17.457 82.375 17.457C82.5833 17.457 82.7656 17.5091 82.9219 17.6133L82.9414 17.6328L82.9609 17.6133C83.2734 17.5742 83.5729 17.5026 83.8594 17.3984C84.1589 17.2812 84.4453 17.1641 84.7188 17.0469C85.0052 16.9167 85.2917 16.7995 85.5781 16.6953C85.8776 16.5781 86.1836 16.4935 86.4961 16.4414C86.5612 16.5456 86.6458 16.6042 86.75 16.6172C86.8672 16.6302 86.9779 16.6237 87.082 16.5977L87.1016 16.5586C87.1276 16.4674 87.1536 16.3893 87.1797 16.3242C87.2057 16.2461 87.2448 16.1615 87.2969 16.0703C87.388 15.9271 87.4987 15.8164 87.6289 15.7383C87.7591 15.6602 87.8958 15.6016 88.0391 15.5625C88.1953 15.5234 88.3581 15.4974 88.5273 15.4844C88.6966 15.4714 88.8659 15.4518 89.0352 15.4258H89.0742L89.0938 15.3672C89.1458 15.2109 89.2109 15.1068 89.2891 15.0547C89.3802 14.9896 89.4714 14.944 89.5625 14.918C89.6667 14.8919 89.7708 14.8724 89.875 14.8594C89.9922 14.8464 90.1029 14.8073 90.207 14.7422C90.4414 14.8203 90.6367 14.7943 90.793 14.6641C90.9492 14.5339 91.099 14.3971 91.2422 14.2539L91.3984 14.4492L91.457 14.3711C91.6523 14.1888 91.7956 14.0521 91.8867 13.9609C91.9909 13.8698 92.0885 13.7917 92.1797 13.7266C92.2708 13.6484 92.375 13.5768 92.4922 13.5117C92.6224 13.4336 92.7982 13.3229 93.0195 13.1797C93.2018 13.0625 93.3776 12.9453 93.5469 12.8281C93.7292 12.7109 93.9049 12.5807 94.0742 12.4375C94.1393 12.4635 94.1719 12.5156 94.1719 12.5938C94.1719 12.6589 94.1719 12.724 94.1719 12.7891C94.1589 12.8151 94.1458 12.8542 94.1328 12.9062C94.1328 12.9583 94.1458 12.9974 94.1719 13.0234ZM86.0859 10.582C86.0729 10.569 86.0599 10.5625 86.0469 10.5625C86.0469 10.5625 86.0404 10.556 86.0273 10.543C85.7539 10.3997 85.526 10.3346 85.3438 10.3477C85.1615 10.3477 84.9922 10.3997 84.8359 10.5039C84.6927 10.5951 84.556 10.7188 84.4258 10.875C84.3086 11.0182 84.1784 11.1549 84.0352 11.2852C83.9049 11.4023 83.7487 11.4935 83.5664 11.5586C83.3841 11.6237 83.1628 11.6172 82.9023 11.5391C82.8633 11.7474 82.8242 11.9557 82.7852 12.1641C82.7591 12.3594 82.7396 12.5612 82.7266 12.7695C82.5052 12.8477 82.3294 12.9583 82.1992 13.1016C82.082 13.2448 81.9779 13.401 81.8867 13.5703C81.8086 13.7396 81.7305 13.9219 81.6523 14.1172C81.5872 14.2995 81.4961 14.4753 81.3789 14.6445L81.457 14.7422C81.5091 14.7161 81.5677 14.7357 81.6328 14.8008C81.6979 14.8659 81.7435 14.9115 81.7695 14.9375C81.9128 14.7292 82.1016 14.5534 82.3359 14.4102C82.5833 14.2669 82.8307 14.1367 83.0781 14.0195C83.3385 13.8893 83.5859 13.7526 83.8203 13.6094C84.0547 13.4661 84.2305 13.2773 84.3477 13.043C84.7643 12.9258 85.0768 12.6914 85.2852 12.3398C85.4935 11.9883 85.6693 11.6237 85.8125 11.2461C85.8385 11.168 85.8841 11.0573 85.9492 10.9141C86.0273 10.7578 86.0729 10.6471 86.0859 10.582ZM105.461 15.1328C105.161 15.276 104.96 15.4518 104.855 15.6602C104.751 15.8685 104.667 16.0833 104.602 16.3047C104.549 16.526 104.478 16.7409 104.387 16.9492C104.309 17.1445 104.133 17.3073 103.859 17.4375C103.794 17.6719 103.664 17.8346 103.469 17.9258C103.286 18.0169 103.091 18.1016 102.883 18.1797C102.674 18.2448 102.486 18.3359 102.316 18.4531C102.16 18.5703 102.082 18.7721 102.082 19.0586C101.822 19.2018 101.535 19.332 101.223 19.4492C100.923 19.5664 100.604 19.651 100.266 19.7031C99.9401 19.7682 99.6146 19.7943 99.2891 19.7812C98.9635 19.7682 98.6576 19.7031 98.3711 19.5859C98.1758 19.4948 97.987 19.3776 97.8047 19.2344C97.7396 19.1823 97.6745 19.1367 97.6094 19.0977C97.5573 19.0716 97.4987 19.026 97.4336 18.9609C97.2773 18.8047 97.1471 18.6224 97.043 18.4141C96.9388 18.2057 96.8542 17.9844 96.7891 17.75C96.724 17.5156 96.6719 17.2812 96.6328 17.0469C96.5938 16.8125 96.5612 16.5911 96.5352 16.3828L97.2578 14.4297C96.8802 14.1302 96.5742 13.7852 96.3398 13.3945C96.1055 12.9909 95.819 12.6198 95.4805 12.2812C95.4154 12.3724 95.3307 12.4505 95.2266 12.5156C95.1224 12.5807 95.0833 12.6849 95.1094 12.8281L95.3047 13.0039C94.875 13.4727 94.4388 14.0065 93.9961 14.6055C93.5664 15.1914 93.2279 15.7839 92.9805 16.3828C92.694 16.3698 92.4922 16.4414 92.375 16.5977C92.2578 16.7409 92.1602 16.9102 92.082 17.1055C92.0039 17.2878 91.9062 17.457 91.7891 17.6133C91.6719 17.7695 91.4766 17.8346 91.2031 17.8086C91.138 17.9518 91.0729 18.1081 91.0078 18.2773C90.9427 18.4336 90.8646 18.5833 90.7734 18.7266C90.6823 18.8698 90.5716 18.987 90.4414 19.0781C90.3112 19.1823 90.1484 19.2344 89.9531 19.2344C89.849 19.1302 89.7904 19.0195 89.7773 18.9023C89.7643 18.7852 89.7773 18.668 89.8164 18.5508C89.8555 18.4206 89.9076 18.2969 89.9727 18.1797C90.0378 18.0495 90.0833 17.9258 90.1094 17.8086C90.2135 17.431 90.4023 17.0924 90.6758 16.793C90.9492 16.4805 91.2227 16.1745 91.4961 15.875C91.7695 15.5625 92.0039 15.237 92.1992 14.8984C92.3945 14.5599 92.4727 14.1628 92.4336 13.707C92.6029 13.694 92.7721 13.6615 92.9414 13.6094C93.1237 13.5443 93.2865 13.4661 93.4297 13.375C93.5859 13.2708 93.7031 13.1471 93.7812 13.0039C93.8724 12.8477 93.9049 12.6654 93.8789 12.457C93.7747 12.4049 93.7161 12.3333 93.7031 12.2422C93.6901 12.138 93.6901 12.0339 93.7031 11.9297C93.9896 11.8385 94.2174 11.6823 94.3867 11.4609C94.569 11.2266 94.7318 10.9792 94.875 10.7188C95.0182 10.4583 95.1549 10.1979 95.2852 9.9375C95.4284 9.66406 95.6107 9.42969 95.832 9.23438C96.0143 9.33854 96.1966 9.42969 96.3789 9.50781C96.5612 9.57292 96.737 9.66406 96.9062 9.78125C96.7891 9.9375 96.7174 10.0872 96.6914 10.2305C96.6654 10.3737 96.6523 10.5234 96.6523 10.6797C96.6523 10.8229 96.6523 10.9661 96.6523 11.1094C96.6523 11.2526 96.6133 11.4023 96.5352 11.5586C96.7435 11.7409 96.9193 11.9557 97.0625 12.2031C97.2057 12.4505 97.388 12.6589 97.6094 12.8281C97.7656 12.7109 97.9414 12.6523 98.1367 12.6523C98.332 12.6393 98.5273 12.6393 98.7227 12.6523C98.931 12.6523 99.1263 12.6393 99.3086 12.6133C99.4909 12.5742 99.6406 12.4635 99.7578 12.2812C99.8099 12.3333 99.888 12.3594 99.9922 12.3594C100.096 12.3594 100.201 12.3594 100.305 12.3594C100.409 12.3594 100.5 12.3789 100.578 12.418C100.656 12.444 100.702 12.5026 100.715 12.5938C100.728 12.6979 100.721 12.7695 100.695 12.8086C100.682 12.8477 100.663 12.9128 100.637 13.0039C100.611 13.1081 100.604 13.1602 100.617 13.1602C100.63 13.1602 100.617 13.2057 100.578 13.2969C100.513 13.4661 100.402 13.6094 100.246 13.7266C100.103 13.8438 99.9531 13.9609 99.7969 14.0781C99.6536 14.1823 99.5169 14.306 99.3867 14.4492C99.2695 14.5794 99.2109 14.7487 99.2109 14.957C98.9245 15.0612 98.7227 15.2174 98.6055 15.4258C98.4883 15.6211 98.4102 15.849 98.3711 16.1094C98.332 16.3568 98.306 16.6172 98.293 16.8906C98.2799 17.151 98.2344 17.3919 98.1562 17.6133L98.332 17.8086L98.4883 17.6133C98.6706 17.8737 98.8854 18.0365 99.1328 18.1016C99.3932 18.1667 99.6602 18.1862 99.9336 18.1602C100.064 17.9648 100.214 17.8086 100.383 17.6914C100.565 17.5742 100.754 17.4766 100.949 17.3984C101.158 17.3203 101.366 17.2487 101.574 17.1836C101.796 17.1185 102.004 17.0404 102.199 16.9492C102.355 16.8711 102.486 16.7865 102.59 16.6953C102.707 16.6042 102.831 16.5 102.961 16.3828C103.352 16.0182 103.736 15.6602 104.113 15.3086C104.504 14.957 104.895 14.599 105.285 14.2344C105.363 14.2344 105.415 14.2734 105.441 14.3516C105.467 14.4297 105.48 14.5208 105.48 14.625C105.48 14.7161 105.474 14.8138 105.461 14.918C105.461 15.0091 105.461 15.0807 105.461 15.1328Z" fill="#5A3018"/>
</svg>
